<?xml version="1.0" encoding="UTF-8"?>
<svg id="Layer_1" data-name="Layer 1" xmlns="http://www.w3.org/2000/svg" viewBox="0 0 1064.77 1261.5">
  <defs>
    <style>
      .cls-1 {
        fill: #fff;
      }

      .cls-1, .cls-2 {
        stroke: #231f20;
      }

      .cls-1, .cls-2, .cls-3, .cls-4, .cls-5, .cls-6, .cls-7, .cls-8, .cls-9, .cls-10, .cls-11, .cls-12, .cls-13 {
        stroke-miterlimit: 10;
      }

      .cls-1, .cls-5, .cls-7, .cls-12 {
        stroke-width: 4px;
      }

      .cls-14, .cls-3, .cls-4, .cls-5 {
        fill: #084b6e;
      }

      .cls-3, .cls-4, .cls-5, .cls-6, .cls-7, .cls-8, .cls-9, .cls-10, .cls-11, .cls-12, .cls-13 {
        stroke: #000;
      }

      .cls-3, .cls-9 {
        stroke-width: 9px;
      }

      .cls-4 {
        stroke-width: 5px;
      }

      .cls-6 {
        opacity: .6;
      }

      .cls-6, .cls-10 {
        fill: #ee384d;
      }

      .cls-15, .cls-7, .cls-11 {
        fill: #515254;
      }

      .cls-8 {
        stroke-width: 7px;
      }

      .cls-8, .cls-9, .cls-12, .cls-13 {
        fill: none;
      }

      .cls-11 {
        stroke-width: 2px;
      }

      .cls-13 {
        stroke-width: 3px;
      }
    </style>
  </defs>
  <polygon class="cls-4" points="75.03 896.37 789.45 907.29 959.49 759.75 246.72 738.41 75.03 896.37"/>
  <path class="cls-3" d="M198.91,190.82s21.33,510.25,56.89,547.59"/>
  <polygon class="cls-3" points="937.97 217.67 186.11 190.82 4.77 341.94 72.33 889.53 227.86 751.82 243 738.41 959.49 759.75 937.97 217.67"/>
  <path class="cls-8" d="M186.11,190.82s21.33,510.25,56.89,547.59"/>
  <path class="cls-3" d="M412.25,807.14s-224.2,53.31-85.25,177.65c0,0,44.57,27.63,83.9,21.87"/>
  <path class="cls-3" d="M717.09,951.21c24.42,56.65,204.83,116.84,204.83,116.84l54.12-74.26,22-30.19s-109-32.19-107.31-55.91c.11-1.48.47-2.85,1.05-4.11,8.76-18.93,67.7-14.04,67.7-14.04v-17.6c-87.18-61.45-105.51,49.25-105.51,49.25-28.84,3.53-108.1-49.25-108.1-49.25l-55.18,7.45,26.39,71.83Z"/>
  <line class="cls-13" x1="888.29" y1="966.26" x2="976.05" y2="993.79"/>
  <line class="cls-13" x1="852.88" y1="986.61" x2="950.9" y2="1028.29"/>
  <path class="cls-3" d="M429,1035.22s37.9,131.02-40.6,131.02-155.64-33.84-236.85,82.56l305.87,8.12s13.53-39.25,66.32-32.48v-190.11"/>
  <path class="cls-12" d="M480.47,1231.45s-69.4-40.35-69.98-70.49"/>
  <path class="cls-12" d="M500.35,1224.51s-63.72-32.21-78.19-72.65"/>
  <path class="cls-3" d="M638.09,1035.22s-37.9,131.02,40.6,131.02c78.5,0,155.64-33.84,236.85,82.56l-305.87,8.12s-13.53-39.25-66.32-32.48v-190.11"/>
  <path class="cls-12" d="M586.62,1231.45s69.4-40.35,69.98-70.49"/>
  <path class="cls-12" d="M566.75,1224.51s63.72-32.21,78.19-72.65"/>
  <line class="cls-12" x1="507.73" y1="202.31" x2="482.13" y2="79.21"/>
  <ellipse class="cls-1" cx="428.76" cy="464.62" rx="114.59" ry="179"/>
  <ellipse class="cls-2" cx="393.01" cy="471.92" rx="62.68" ry="100.38"/>
  <ellipse class="cls-1" cx="717.09" cy="480.47" rx="114.59" ry="179"/>
  <ellipse class="cls-2" cx="682.68" cy="480.47" rx="62.68" ry="100.38"/>
  <polygon class="cls-12" points="144.7 301.47 37.77 380.09 55.97 418.85 150.38 355.15 144.7 301.47"/>
  <ellipse class="cls-12" cx="132.18" cy="475.16" rx="18.2" ry="38.11"/>
  <line class="cls-12" x1="94.08" y1="613.36" x2="156.07" y2="556.49"/>
  <line class="cls-12" x1="107.16" y1="629.29" x2="160.62" y2="584.93"/>
  <line class="cls-12" x1="113.98" y1="653.18" x2="173.13" y2="607.11"/>
  <line class="cls-12" x1="125.08" y1="705.5" x2="160.62" y2="681.61"/>
  <path class="cls-3" d="M649.48,772.14h-209.74s-136.33,140.26-28.84,262.17h229.4s166.48-72.1,9.18-262.17Z"/>
  <path class="cls-9" d="M405.09,822.85s135.15,53.06,277.59,0"/>
  <path class="cls-9" d="M384.94,860.05s155.64,53.06,319.68,0"/>
  <path class="cls-9" d="M370.14,895.5s168.66,53.06,346.43,0"/>
  <path class="cls-9" d="M518.79,649.2s9.6,45.33,64.53,26.5"/>
  <rect class="cls-7" x="907.13" y="860.57" width="117.68" height="179.88" transform="translate(604.67 -355.64) rotate(30)"/>
  <rect class="cls-7" x="887.95" y="860.57" width="117.68" height="179.88" transform="translate(602.1 -346.05) rotate(30)"/>
  <line class="cls-12" x1="959.54" y1="842.69" x2="940.37" y2="842.69"/>
  <polygon class="cls-15" points="943.58 843.2 959.98 843.2 1059.88 901.98 1042.72 902.04 943.58 843.2"/>
  <path class="cls-11" d="M1040.96,902.04l18.93-.07-18.93.07Z"/>
  <polygon class="cls-15" points="1024.81 941.53 1024.81 957.93 972.52 1056.85 955.08 1056.77 1024.81 941.53"/>
  <circle class="cls-6" cx="943.58" cy="950.51" r="29.78"/>
  <polyline class="cls-13" points="1001.14 873.06 1025.79 852.19 1017.19 821.59 1042.72 812.31"/>
  <circle class="cls-10" cx="936.19" cy="950.51" r="29.78"/>
  <circle class="cls-10" cx="1052.67" cy="808.46" r="11.6"/>
  <path class="cls-14" d="M883.2,909.39c.09-1.28,3.84-10.73,4.34-11.82,7.54-16.28,58.23-12.08,58.23-12.08v-15.14c-62.11-43.78-82.22,30.58-87.76,51.72,6.86,2.11,12.4-12.53,19.38-10.85"/>
  <path d="M930.88,861.81c5.1,2.9,10.14,5.89,15.14,8.97,1.11.69,2.8.28,3.42-.9s.29-2.69-.9-3.42c-4.99-3.08-10.04-6.07-15.14-8.97-1.14-.65-2.78-.31-3.42.9s-.32,2.73.9,3.42h0Z"/>
  <path d="M945.52,869.36c0,5.31,0,10.62,0,15.93,0,1.31,1.15,2.56,2.5,2.5s2.5-1.1,2.5-2.5c0-5.31,0-10.62,0-15.93,0-1.31-1.15-2.56-2.5-2.5s-2.5,1.1-2.5,2.5h0Z"/>
  <path d="M947.43,884.52h-30.86c-3.22,0-3.22,5,0,5h30.86c3.22,0,3.22-5,0-5h0Z"/>
  <path d="M916,884.9h-.85c-.21,0-.4.04-.58.13-.19.06-.35.16-.48.31-.15.14-.25.3-.31.48-.09.18-.14.37-.13.58l.05.4c.07.25.2.47.39.66l.3.23c.23.14.49.2.76.2h.85c.21,0,.4-.04.58-.13.19-.06.35-.16.48-.31.15-.14.25-.3.31-.48.09-.18.14-.37.13-.58l-.05-.4c-.07-.25-.2-.47-.39-.66l-.3-.23c-.23-.14-.49-.2-.76-.2h0Z"/>
  <path class="cls-5" d="M476.59,96.93c-1.76,10.79-7.39,20.89-18.49,22.48-7.57,1.08-14.47-2.7-17.74-9.57-4.89-10.28-1.43-21.13,5.41-29.87l7.05-9.01c1.73-2.21,3.16-4.64,4.13-7.23,1.58-4.23.23-8.66-3.35-11.37-5.54-4.19-12.05-5.14-17.04-9.57-3.06-2.71-4.72-6.36-4.85-10.48-.21-6.87,3.33-13.43,9.32-16.72,7.26-3.98,15.79-1.96,20.47,4.76,3.73,5.35,4.39,11.57,8.46,15.72,1.08,1.1,2.71,1.77,3.88,1.73,3.9-.15,5.32-3.96,6.47-7.95l2.58-8.91c3.56-12.32,14.55-21.03,27.4-18.5,9.28,1.82,15.7,9.46,15.35,18.99-.38,10.35-7.1,19.03-15.4,24.93l-9.7,6.9c-2.05,1.46-3.83,3.29-4.93,5.52-1.33,2.67-.53,5.7,1.82,7.59,2.22,1.78,4.98,2.77,7.71,3.78l13.57,5.01c3.73,1.38,6.87,3.75,9.63,6.57,7.48,7.66,7.03,19.87-.65,25.39-10.34,7.43-25.29,3.91-31.05-7.77l-4.96-10.06c-1.28-2.59-2.76-5.16-4.93-6.93-2.29-1.87-5.43-1.35-6.89,1.13-.83,1.41-1.59,3.1-1.86,4.74l-1.42,8.72Z"/>
</svg>