<?xml version="1.0" encoding="UTF-8"?>
<svg id="Layer_1" data-name="Layer 1" xmlns="http://www.w3.org/2000/svg" viewBox="0 0 1146.79 1103.99">
  <defs>
    <style>
      .cls-1 {
        fill: #231f20;
      }

      .cls-2, .cls-3, .cls-4, .cls-5 {
        stroke-miterlimit: 10;
      }

      .cls-2, .cls-4, .cls-5 {
        fill: none;
        stroke: #231f20;
      }

      .cls-3 {
        fill: #0f804c;
        stroke: #000;
      }

      .cls-3, .cls-5 {
        stroke-width: 4px;
      }

      .cls-4 {
        stroke-width: 5px;
      }
    </style>
  </defs>
  <polyline class="cls-3" points="439.93 153.24 439.93 46.34 522.08 109.75 534.16 9.93 605.8 81 661.36 5.75 664.71 85.25"/>
  <polyline class="cls-3" points="662.18 841.21 674.39 1101.99 881.97 1101.99 798.24 1023.62 846.25 770.84"/>
  <polyline class="cls-3" points="620.79 836.8 620.79 1075.04 401.04 1087.36 480.45 1014.79 477.64 1004.22 418.15 779.98"/>
  <path class="cls-3" d="M222.16,432.44s-42.57,29.96-53.61,23.65c-9.79-5.59-18.33-69.44-20.14-83.84-.22-1.74.66-3.42,2.21-4.24l30.2-16.18c3.61-1.93,2.65-7.35-1.4-7.93l-28.93-4.13c-1.5-.21-2.77-1.21-3.33-2.62l-22.45-56.13c-1.73-4.33-8.17-3.09-8.17,1.57v52.89c0,4.14-5.33,5.82-7.7,2.43l-36.62-52.16c-2.38-3.39-7.7-1.7-7.7,2.43v57.49c0,4.09-5.21,5.82-7.64,2.53-15.1-20.56-47.83-63.31-53.85-56.08-7.88,9.46,29.96,260.14,121.4,288.52,91.44,28.38,122.98-36.26,122.98-36.26"/>
  <path class="cls-3" d="M935.1,680.14s11.22,36.55,5.66,58.83-25.8,64.97-25.8,64.97c0,0,75.92-18.56,72.21-44.55,0,0,55.95,98.98,63.71,93.81,7.76-5.17-15.52-85.36-7.76-85.36s34.92,78.89,60.79,65.96c0,0,0-68.55-24.57-82.77-24.57-14.23,41.39,58.2,62.08,58.2s-56.91-265.14-140.98-284.54"/>
  <circle class="cls-3" cx="603.26" cy="449.06" r="377.45"/>
  <circle class="cls-3" cx="624.85" cy="465.11" r="377.45"/>
  <circle class="cls-3" cx="642.62" cy="465.49" r="377.45"/>
  <path class="cls-4" d="M471.12,294.79s31.71,153.08,168.21,154.27c136.49,1.19,158.26-188.47,158.26-188.47"/>
  <path class="cls-5" d="M551.96,249.71s6.22,62.18,32.65,59.08c26.43-3.11,26.43-59.08,26.43-59.08"/>
  <path class="cls-5" d="M652.66,246.43s17.75,59.92,43.13,51.92c25.38-8,14.9-62.98,14.9-62.98"/>
  <path class="cls-1" d="M496.77,167.25c4.9-.27,9.76-1.39,14.49-2.65,6.01-1.6,11.94-3.53,17.82-5.54,12.42-4.25,24.67-8.99,37.09-13.22,5.25-1.79,10.55-3.57,15.99-4.7l-2.43-4.18c-7.07,6.55-14.75,12.47-22.27,18.48-9.2,7.36-18.46,14.65-27.58,22.12-3.65,2.99-7.31,5.99-10.77,9.19-1.46,1.36-.43,4.56,1.77,4.27,12.21-1.6,23.88-5.02,35.43-9.2,10.4-3.76,20.75-7.77,31.64-9.88,6.87-1.33,13.86-1.84,20.85-1.67,3.22.08,3.22-4.92,0-5-12.14-.29-24.07,1.68-35.63,5.32-10.63,3.34-20.91,7.72-31.59,10.91-6.77,2.02-13.7,3.61-20.71,4.53l1.77,4.27c7.07-6.55,14.75-12.47,22.27-18.48,9.2-7.36,18.46-14.65,27.58-22.12,3.65-2.99,7.31-5.99,10.77-9.19,1.94-1.8-.13-4.66-2.43-4.18-4.68.97-9.26,2.45-13.79,3.96-5.9,1.97-11.75,4.09-17.59,6.21-12.25,4.45-24.48,9.07-37.03,12.61-2.87.81-5.77,1.56-8.69,2.16-1.31.27-2.62.5-3.94.7-.11.02-.22.03-.33.05-.31.04.41-.05-.09,0-.28.03-.56.07-.83.09-.59.06-1.18.11-1.78.14-3.2.18-3.22,5.18,0,5h0Z"/>
  <path class="cls-1" d="M676.2,124.76c4.61,1.61,9.5,2.35,14.31,2.99,6.12.82,12.28,1.3,18.44,1.69,13.08.83,26.19,1.13,39.28,1.96,3.08.2,6.17.42,9.24.74.64.07,1.29.14,1.93.21.35.04.69.08,1.04.13.11.01.23.03.34.04.72.09-.3-.04.11.01,1.19.16,2.37.35,3.55.57v-4.82c-9.03,3.35-18.4,5.88-27.65,8.57-11.32,3.29-22.66,6.48-33.94,9.9-4.51,1.37-9.04,2.74-13.46,4.38-2.2.82-2.54,4.14,0,4.82,11.87,3.18,24.03,4.41,36.28,4.96,10.83.49,21.72.71,32.38,2.89,6.85,1.4,13.54,3.51,19.93,6.34,1.23.55,2.69.36,3.42-.9.62-1.06.34-2.87-.9-3.42-11.29-4.99-23.11-7.77-35.39-8.86-11.17-.99-22.41-.87-33.58-2.02-7.03-.72-13.99-1.98-20.82-3.82v4.82c9.03-3.35,18.4-5.88,27.65-8.57,11.32-3.29,22.66-6.48,33.94-9.9,4.51-1.37,9.04-2.74,13.46-4.38,1.05-.39,1.84-1.24,1.84-2.41,0-1.03-.77-2.21-1.84-2.41-10.91-2.07-22.24-2.19-33.29-2.68-13.05-.58-26.15-.98-39.13-2.5-5.04-.59-10.7-1.38-15.82-3.17-1.27-.45-2.73.51-3.08,1.75-.38,1.38.47,2.63,1.75,3.08h0Z"/>
  <polyline class="cls-2" points="470.79 1023.62 603.26 1006.58 477.64 1004.22"/>
</svg>