<?xml version="1.0" encoding="UTF-8"?>
<svg id="Layer_1" data-name="Layer 1" xmlns="http://www.w3.org/2000/svg" viewBox="0 0 1206.58 1455.75">
  <defs>
    <style>
      .cls-1 {
        opacity: .27;
      }

      .cls-1, .cls-2, .cls-3, .cls-4, .cls-5, .cls-6, .cls-7, .cls-8, .cls-9 {
        stroke-miterlimit: 10;
      }

      .cls-1, .cls-4, .cls-5, .cls-6, .cls-7, .cls-9 {
        stroke: #000;
      }

      .cls-2, .cls-3 {
        fill: #fff;
      }

      .cls-2, .cls-3, .cls-8 {
        stroke: #241f20;
      }

      .cls-2, .cls-8 {
        stroke-width: 3px;
      }

      .cls-3, .cls-9 {
        stroke-width: 4px;
      }

      .cls-4, .cls-10 {
        fill: #ffc600;
      }

      .cls-4, .cls-5 {
        stroke-width: 9px;
      }

      .cls-5 {
        fill: #ff8300;
      }

      .cls-11 {
        fill: #241f20;
      }

      .cls-7 {
        opacity: .4;
        stroke-width: 5px;
      }

      .cls-7, .cls-8, .cls-9 {
        fill: none;
      }
    </style>
  </defs>
  <polyline class="cls-4" points="499.85 1120.14 368.23 1441.52 124.9 1343.75 186.24 1316.6 209.63 1327.46 322.08 1085.57"/>
  <path class="cls-4" d="M560.5,1134.1s81.21,218.35-34.35,280.26c-115.56,61.92,322.22,27.16,322.22,27.16,0,0-58.66-54.31-115.15-54.31,0,0,67.36-52.05,33.14-203.09"/>
  <path class="cls-4" d="M287.68,786.88c-71.35,84.26-143.38-18.65-143.38-18.65l-13.85-1.83c36.17,7.03,83.39-29.14,77.36-49.23-6.03-20.09-87.41,19.09-87.41,19.09,12.07-3.25,28.85-12.93,43.41-22.4,20.41-13.27,37.06-31.61,48.4-53.15,13.36-25.38,25.56-53.11.02-27.94-41.8,41.19-71.74,26.12-71.74,26.12,0,0,76.36-83.39,65.31-97.46-11.05-14.07-77.36,25.12-101.48,56.26s-19.09,134.63-19.09,134.63c0,0,12.06,167.79,82.39,180.85,70.33,13.06,86.62-30.48,86.62-30.48"/>
  <polygon class="cls-4" points="386.7 379.76 1131.41 511.86 932.28 1204.24 214.93 1064.73 386.7 379.76"/>
  <polygon class="cls-4" points="389.16 367.08 1127.05 533.11 896.46 1215.65 186.24 1043.48 389.16 367.08"/>
  <path class="cls-9" d="M628.52,670.96s-23.56,74.06-63.96,74.06-18.51-112.77-18.51-112.77"/>
  <path class="cls-9" d="M487.13,633.93s-23.56,74.06-63.96,74.06c-40.39,0-18.51-112.77-18.51-112.77"/>
  <g>
    <line class="cls-9" x1="700.89" y1="532.95" x2="584.32" y2="480.77"/>
    <polyline class="cls-9" points="633.3 502.69 596.54 506.86 700.89 560.04"/>
  </g>
  <g>
    <line class="cls-9" x1="370.56" y1="515.23" x2="487.13" y2="463.06"/>
    <polyline class="cls-9" points="438.16 484.98 474.92 489.14 370.56 542.33"/>
  </g>
  <path class="cls-4" d="M875.07,865.49s107.16,36.34,115.73,70.89c8.57,34.55-35.7,33.58-35.7,33.58l25.96-4.74-83.44,15.24c-7.09,21.27-61.44,5.51-59.07,29.14,2.36,23.63,84.28,12.6,84.28,12.6l5.52,48.05s-14.72,94.6,3.94,93.73c18.66-.87,36.83-79.31,36.83-79.31,0,0,17.02,109.88,26.31,109.88,9.29,0,18.57-105.24,18.57-105.24,0,0,170.24-4.64,187.26-152.94,17.02-148.3-232.15-247.75-232.15-247.75"/>
  <g>
    <path class="cls-2" d="M381.4,822.76c-4.86-25.21,22.67-44.05,44.32-30.26,31.36,19.98,86.97,48.67,137.05,39.94,61.8-10.77,17.33,34.9-.13,51.21-4.03,3.77-9.05,6.29-14.47,7.32-30.23,5.74-134.14,20.67-158.14-39.87-4.09-10.33-6.77-19.26-8.36-26.99-.09-.45-.18-.91-.27-1.35Z"/>
    <path class="cls-8" d="M418.74,841.3s-39.71-13.63-38.12-23.18"/>
  </g>
  <g>
    <polygon class="cls-3" points="308.13 898.25 128.1 939.96 147.76 640.56 2.44 60.99 182.2 19.34 227.15 624.82 308.13 898.25"/>
    <path class="cls-3" d="M184.79,27.22c3.25,22.74-34.74,50.59-84.84,62.2-50.11,11.61-93.37,2.59-96.62-20.15C.08,46.52,38.07,18.68,88.17,7.07c50.11-11.61,93.37-2.59,96.62,20.15Z"/>
    <path class="cls-3" d="M308.13,898.25c.99,6.93-38.51,21.88-88.23,33.4s-90.82,15.24-91.81,8.31,38.51-21.88,88.23-33.4c49.72-11.52,90.82-15.24,91.81-8.31Z"/>
    <path class="cls-11" d="M97.32,44.09c-2.74,1.23-6.05.98-8.8-.36-3.34-1.63-5.89-4.39-7.56-7.7s-2.97-8.66-.86-12.22c.95-1.61,2.64-2.59,4.34-3.24,2.43-.93,4.95-1.66,7.46-2.31,10.5-2.72,21.6-3.38,32.34-1.74,3.85.59,7.74,1.48,11.08,3.56s5.67,5.5,6.56,9.44c2.02,8.91-2.13,18.14-8.75,24.01-3.4,3.01-7.42,5.25-11.47,7.26-4.8,2.38-9.78,4.38-14.89,5.99-9.99,3.14-20.41,4.73-30.89,4.61-5.06-.06-10.21-.39-15.16-1.46-4.55-.98-8.89-2.77-12.2-6.12-2.9-2.95-5.04-6.93-5.39-11.1-.41-4.91,1.23-9.86,3.54-14.14,4.69-8.68,12.58-14.43,21.22-18.82,2.32-1.18,4.69-2.28,7.05-3.38,1.22-.57,1.53-2.33.9-3.42-.73-1.26-2.19-1.47-3.42-.9-5.29,2.46-10.61,4.95-15.44,8.26-4.46,3.05-8.38,6.68-11.61,11.02s-5.77,9.57-6.8,14.95-.27,11,2.49,15.87c2.43,4.3,6.2,7.84,10.64,9.99,5.33,2.57,11.22,3.41,17.06,3.9,11.57.98,23.33-.13,34.56-3.07,5.72-1.5,11.29-3.51,16.69-5.9,4.88-2.17,9.74-4.61,14.01-7.85s8.01-7.25,10.29-12.12,3.38-10.02,2.95-15.22c-.42-5.07-2.31-9.96-6.04-13.51-3.33-3.17-7.69-5-12.13-6-11.49-2.6-23.86-2.17-35.32.33-2.91.63-5.78,1.42-8.61,2.35-2.46.81-4.86,1.73-6.89,3.38-4.49,3.64-4.8,9.95-3.49,15.17,2.14,8.49,9.67,16.49,18.94,16.29,2.16-.05,4.17-.59,6.13-1.47,1.23-.55,1.53-2.34.9-3.42-.74-1.27-2.18-1.45-3.42-.9h0Z"/>
  </g>
  <path class="cls-4" d="M89.92,793.83c5.17-1.76,10.37-3.43,15.62-5.06,14.67-4.56,29.22-8.62,44.45-10.88.52-.08,1.03-.14,1.55-.22-5.1-5.84-7.94-9.89-7.94-9.89l-8.23-1.08c35.23,2.63,77.46-30.91,71.74-49.97-3.92-13.06-39.69-1.07-64.24,8.92,6.78-3.72,13.73-8,20.24-12.23,20.41-13.27,37.06-31.61,48.4-53.15,13.36-25.38,25.56-53.11.02-27.94-41.8,41.19-71.74,26.12-71.74,26.12,0,0,76.36-83.39,65.31-97.46-11.05-14.07-77.36,25.12-101.48,56.26-24.11,31.15-19.09,134.63-19.09,134.63,0,0,1.27,17.65,5.38,41.94Z"/>
  <path class="cls-10" d="M118.88,791.3c3.22,0,3.22-5,0-5s-3.22,5,0,5h0Z"/>
  <path class="cls-10" d="M117.74,793.12c.16-4.48-1.15-9.89-5.37-12.23s-10.75-.15-15.3.5c-2.3.33-3.47,2.82-3.67,4.82-.33,3.24,0,6.3.91,9.43,1.35,4.7,8.34,4.82,9.64,0,1.1-4.09.1-7.41-2.5-10.62l-3.54,8.54c2.03-.14,3.2,1.7,5.05,2.43,2.1.82,4.54.73,6.7.17,4.62-1.2,8.28-4.57,11.27-8.13,2.6-3.09,4.16-7.1.5-10.14-3.1-2.58-8.94-3.18-11.84-.11-1.19,1.27-1.84,3.15-1.29,4.86,1.05,3.27,4.01,8.85,7.42,10.17,1.87.73,3.45.33,5.27-.29,3.61-1.24,6.62-2.32,10.49-2.59,2.76-.19,4.92-2.14,5-5,.07-2.45,1.61-3.31,3.83-3.65l-2.66-9.64c-5.45,1.18-10.8,2.64-16.09,4.39-6.08,2.01-3.48,11.67,2.66,9.64,5.29-1.75,10.64-3.21,16.09-4.39,6.4-1.38,3.55-10.59-2.66-9.64-6.68,1.02-10.98,6.74-11.17,13.29l5-5c-3.83.27-7.58.83-11.2,2.16-.7.24-1.38.51-2.06.82,2.63,2.31,3.41,2.71,2.34,1.2-.51-1.5-2.13-2.63-2.62-4.13l-1.29,4.86-2.24.19v-5.05c-1.17,2.34-5.05,6.79-7.89,6.37-1.19-.18-2.5-1.65-3.7-2.11-1.61-.61-3.22-.82-4.93-.7-4.56.32-6.29,5.13-3.54,8.54l-.07.89h9.64c-.67-2.34-.79-4.37-.55-6.77l-3.67,4.82c2.31-.33,4.72-.9,7.06-1.01,1.74-.34,1.98-.3.71.11.31.98.39,1.98.25,3-.22,6.44,9.78,6.43,10,0h0Z"/>
  <path class="cls-5" d="M528.82,389.75s-39.58-5.11-37.03,19.15c2.55,24.26,403.47,140.45,541.36,80.44,0,0,9.86-26.5-25.33-36.55,0,0,13.52-235.66-202.45-274.93-215.97-39.27-276.56,211.89-276.56,211.89Z"/>
  <path class="cls-1" d="M736.17,187.35l-2.73,172.65,21.26-164.93c1.07-8.3,8.73-14.12,17.02-12.92l85.51,12.38c8.15,1.18,13.7,8.88,12.24,16.99l-31.61,175.26,51.39-170.27c4.62-15.32-4.16-31.47-19.54-35.91l-33.42-9.65c-9.31-2.69-18.88-4.39-28.56-5.06l-37.17-2.59c-9.94-.69-19.75,2.55-27.32,9.03h0c-4.4,3.77-6.98,9.25-7.07,15.05Z"/>
  <path class="cls-6" d="M732.96,182.68l-2.73,172.65,21.26-164.93c1.07-8.3,8.73-14.12,17.02-12.92l85.51,12.38c8.15,1.18,13.7,8.88,12.24,16.99l-31.61,175.26,51.39-170.27c4.62-15.32-4.16-31.47-19.54-35.91l-33.42-9.65c-9.31-2.69-18.88-4.39-28.56-5.06l-37.17-2.59c-9.94-.69-19.75,2.55-27.32,9.03h0c-4.4,3.77-6.98,9.25-7.07,15.05Z"/>
  <path class="cls-7" d="M493.26,399.75s409.73,148.78,534.87,82"/>
</svg>