<?xml version="1.0" encoding="UTF-8"?>
<svg id="Layer_1" data-name="Layer 1" xmlns="http://www.w3.org/2000/svg" viewBox="0 0 739.33 1349.03">
  <defs>
    <style>
      .cls-1 {
        fill: #084b6e;
        stroke-width: 9px;
      }

      .cls-1, .cls-2, .cls-3, .cls-4, .cls-5, .cls-6, .cls-7, .cls-8, .cls-9, .cls-10, .cls-11, .cls-12 {
        stroke-miterlimit: 10;
      }

      .cls-1, .cls-2, .cls-4, .cls-6, .cls-7, .cls-9, .cls-10, .cls-12 {
        stroke: #000;
      }

      .cls-2, .cls-4, .cls-7, .cls-8, .cls-10, .cls-12 {
        stroke-width: 4px;
      }

      .cls-2, .cls-11 {
        fill: #fff;
      }

      .cls-3, .cls-5, .cls-8, .cls-11 {
        stroke: #231f20;
      }

      .cls-3, .cls-5, .cls-11 {
        stroke-width: 2px;
      }

      .cls-3, .cls-8, .cls-9, .cls-12 {
        fill: none;
      }

      .cls-4 {
        fill: #0045aa;
      }

      .cls-6, .cls-7 {
        fill: #0f804c;
      }

      .cls-6, .cls-9 {
        stroke-width: 5px;
      }

      .cls-10 {
        fill: #ff4000;
      }
    </style>
  </defs>
  <path class="cls-7" d="M275.01,714.3v502.45S83.6,1021.68,5.3,1322.31c0,0,71.31,33.56,201.35,18.18,53.21-6.29,88.87-12.82,112.42-18.34,25.07-5.87,42.79-28.24,42.79-53.99v-534.98"/>
  <path class="cls-7" d="M464.32,719.78v496.96s191.41-195.06,269.71,105.57c0,0-71.31,33.56-201.35,18.18-53.21-6.29-88.87-12.82-112.42-18.34-25.07-5.87-42.79-28.24-42.79-53.99v-534.98"/>
  <ellipse class="cls-6" cx="377.47" cy="474.7" rx="272.6" ry="258.48"/>
  <path class="cls-1" d="M349.59,217.74c-8.89.75-15.89,7.89-16.6,16.78-1.18,14.68-4.11,36.07-11.33,44.33-11.46,13.1,28.94,45.04,55.83,42.58,26.88-2.46,138.25-14.89,136.61-50.84-1.53-33.51-90.84-59.04-164.5-52.85Z"/>
  <path class="cls-1" d="M171.85,305.56s46.67-6.24,44.98,25.69c-1.69,31.94-69.06,28.13-82.7,25.51"/>
  <path class="cls-1" d="M611.26,341.68c-13.24,2.62-80.71,11.31-82.35-20.62-1.64-31.94,43.66-25.69,43.66-25.69l38.7,46.32Z"/>
  <path class="cls-7" d="M172.17,679.88c3.39-3.54,261.68-112.39,261.68-112.39l-6.93-7.7c20.03-20.8,75.5,60.09,75.5,60.09,0,0-123.26,13.87-241.12,93.98-117.87,80.12-129.42,38.52-129.42,38.52,0,0-54.55-40.69-4.1-176.23l9.23,16.56c10.62,19.05,23.09,37.01,37.24,53.62l4.67,5.49.26,24.62"/>
  <path class="cls-7" d="M385.58,651.81s190.7,124.13,234.25,111.36c43.55-12.77,59.78-123.04,16.35-206.81,0,0-26.25,65.91-50.22,84.87v33.83l-93.78-53.7"/>
  <line class="cls-12" x1="597.47" y1="686.24" x2="585.97" y2="675.06"/>
  <ellipse class="cls-5" cx="464.12" cy="425.09" rx="71.42" ry="66.64"/>
  <ellipse class="cls-5" cx="285.17" cy="425.09" rx="71.42" ry="66.64"/>
  <circle class="cls-11" cx="311.78" cy="401.21" r="23.87"/>
  <circle class="cls-11" cx="297.54" cy="446.4" r="12.37"/>
  <circle class="cls-11" cx="438.7" cy="399.17" r="21.83"/>
  <circle class="cls-11" cx="451.93" cy="446.4" r="12.19"/>
  <path class="cls-3" d="M365.45,250.8s3.66-2.12,8.79-3.79c5.13-1.68,11.72-2.91,17.59-1.15"/>
  <path class="cls-1" d="M254.31,65.84c3.91,28.84,20.4,54.49,44.48,70.86,29.98,20.38,77.02,59.13,76.33,101.21-1.02,61.68,59.53-233.41-55.46-233.41-59.29,0-69.43,31.16-65.34,61.34Z"/>
  <path class="cls-8" d="M352.59,494.51s.68,24.54,24.88,22.91c0,0,17.66-2.18,19.29-22.91"/>
  <path class="cls-12" d="M362.41,418.69s-3.27-95.99-114.54-73.63c-84.33,16.95-99.11,92.47-101.32,128.03-1.21,19.49,6.55,38.65,21.55,51.16,13.05,10.89,33.49,19.81,65.04,17.71,73.63-4.91,133.08-71.45,129.26-123.26Z"/>
  <path class="cls-12" d="M388.81,418.69s3.27-95.99,114.54-73.63c79.84,16.05,97.33,84.58,100.85,122.01,2.93,31.21-15.7,60.75-45.48,70.52-10.9,3.58-24.28,5.45-40.64,4.36-73.63-4.91-133.08-71.45-129.26-123.26Z"/>
  <path class="cls-9" d="M345.13,371.1s31.19-25.5,55.02,9.41"/>
  <rect class="cls-2" x="275.01" y="1009.53" width="86.85" height="119.1"/>
  <path class="cls-1" d="M275.01,1090.9v125.84S83.6,1021.68,5.3,1322.31c0,0,71.31,33.56,201.35,18.18,53.21-6.29,88.87-12.82,112.42-18.34,25.07-5.87,42.79-28.24,42.79-53.99v-177.26h-86.85Z"/>
  <rect class="cls-2" x="377.47" y="1009.53" width="86.85" height="119.1"/>
  <path class="cls-1" d="M464.32,1216.74v-125.84h-86.85v177.26c0,25.75,17.72,48.12,42.79,53.99,23.55,5.52,59.21,12.04,112.42,18.34,130.04,15.38,201.35-18.18,201.35-18.18-78.3-300.63-269.71-105.57-269.71-105.57Z"/>
  <rect class="cls-10" x="275.01" y="1055.21" width="86.85" height="9.23"/>
  <rect class="cls-10" x="377.47" y="1055.21" width="86.85" height="9.23"/>
  <rect class="cls-4" x="275.01" y="1038.37" width="86.85" height="9.23"/>
  <rect class="cls-4" x="377.47" y="1038.37" width="86.85" height="9.23"/>
  <path class="cls-12" d="M76.93,1182.04s40.51.82,34.94,46.27"/>
  <path class="cls-12" d="M120.73,1158.91s40.51.82,34.94,46.27"/>
  <path class="cls-12" d="M658.26,1179.76s-40.51.82-34.94,46.27"/>
  <path class="cls-12" d="M614.46,1156.63s-40.51.82-34.94,46.27"/>
</svg>