<?xml version="1.0" encoding="UTF-8"?>
<svg id="Layer_1" data-name="Layer 1" xmlns="http://www.w3.org/2000/svg" viewBox="0 0 916.66 1123.96">
  <defs>
    <style>
      .cls-1, .cls-2, .cls-3, .cls-4, .cls-5, .cls-6, .cls-7 {
        stroke-miterlimit: 10;
      }

      .cls-1, .cls-3, .cls-5, .cls-6, .cls-7 {
        stroke: #231f20;
      }

      .cls-2, .cls-3, .cls-6 {
        stroke-width: 3px;
      }

      .cls-2, .cls-4 {
        fill: #ee384d;
        stroke: #000;
      }

      .cls-3, .cls-7 {
        fill: #fff;
      }

      .cls-4 {
        stroke-width: 4px;
      }

      .cls-5 {
        stroke-width: 5px;
      }

      .cls-5, .cls-6 {
        fill: none;
      }
    </style>
  </defs>
  <g id="Generative_Object_0_0_" data-name="Generative Object (0, 0)">
    <path class="cls-4" d="M842.67,369.4c3.19,16.4,8.96,28.81-3.2,46.74-9.69,14.28-13.41,41.4-29.47,35.07-100.99-39.8-169.6,35.75-169.6,35.75-49.14,64.26-22.39-131.64-22.39-131.64,0,0,190.64-226.04,292.22-11.36,0,0,31.16,122.35-71.56,137.35,0,0-42.92,2.43-28.66-30.11"/>
    <path class="cls-4" d="M634.32,648.68S718.42,69.28,286.68,170.21c-431.74,100.93-160.74,497.16-160.74,497.16,0,0,59.81,115.88,99.06,140.18,0,0,3.74,127.09,91.58,128.96,0,0-109.05,40.34-18.24,132.62,90.81,92.28,197.25,35.64,197.25,35.64,0,0,137.81-204.22,138.72-456.09Z"/>
    <path class="cls-2" d="M241.03,229.98s-48.71-133.46-7.23-202.96c30.52-51.13,108.6-18.86,94.41,38.97-4.72,19.22-15.54,42.35-36.06,69.82-1.32,1.77-2.55,3.61-3.63,5.53-7.26,12.83-26.63,61.71-25.18,93.22"/>
    <path class="cls-2" d="M263.34,234.57s6.89-172.27,106.37-158.52c20.26,2.8,34.13,22.31,29.11,42.14-4.44,17.53-17.25,41.94-48.26,73.92"/>
    <path class="cls-2" d="M293.06,231.99s107.05-141.15,164.26-87.63c57.21,53.52-134.12,107.05-134.12,107.05"/>
    <path class="cls-1" d="M338.39,284.8c.2,20.17,5.38,43.56,27.34,48.4,0,0,44.15-47.55,129.75,3.4,0,0-40.44-106.46-122.95-93.05-19.93,3.24-34.33,21.06-34.13,41.25Z"/>
    <path class="cls-1" d="M208.05,294.63c11.83,16.33,21.57,38.23,6.79,55.17,0,0-63.77-11.99-102.32,79.86,0,0-30.76-109.65,43.56-147.91,17.95-9.24,40.12-3.47,51.97,12.88Z"/>
    <path class="cls-7" d="M514.69,436.68c0,37.08-55.33,84.01-92.41,84.01s-52.37-35.95-52.37-73.03,30.06-67.13,67.13-67.13,77.64,19.08,77.64,56.16Z"/>
    <path class="cls-7" d="M151.06,507.48c0,37.08,28.33,67.21,65.41,67.21,37.08,0,84.01-22.82,84.01-59.9,0-37.08-33.27-80.99-70.35-80.99-37.08,0-79.06,36.61-79.06,73.68Z"/>
    <path class="cls-3" d="M533.82,469.34s-68.38,102.57-151.15,113.36c-82.77,10.8,25.19,57.48,25.19,57.48,0,0,155.65-10.7,161.95-94.37.92-12.16.8-22.4-.05-31.02-5.05-50.71-35.93-45.45-35.93-45.45Z"/>
    <path class="cls-6" d="M536.52,544.91s37.16-27.26,32.38-36.75"/>
    <path class="cls-1" d="M175.68,457.69s.42,49.19,46.63,46.55c46.22-2.64,51.17-50.11,51.17-50.11,0,0-42.22-48.08-97.81,3.56Z"/>
    <path class="cls-1" d="M374.66,430.95s10.67,25.9,42.27,24.46c24.21-1.1,41.7-21.63,48.55-31.17,2.22-3.09,3.76-6.55,4.58-10.27,1.85-8.41,4.07-24.1-3.43-29.38-10.43-7.36-78.54-9.76-91.97,46.36Z"/>
    <path class="cls-4" d="M175.57,709.38c-4.2-31.76,15.23-59.45,30.86-76.1.1-.1.2-.21.29-.31,9.97-10.56,22.75-18.13,36.8-21.77,124.47-32.17,112.12,57.79,94.86,149.15-13.19,69.8-67.38,62.92-95.8,54.06-12.3-3.83-25.28-4.82-37.95-2.54-41.51,7.45-135.96,17.2-183.32-36.08-61.78-69.51,44.47-230.88,44.47-230.88,0,0,33.54,86.23,41.13,90.92,19.74,12.18,69.95,27.92,99.52-2.55"/>
    <path class="cls-5" d="M637.88,614.91s-61.49,176.61-214.61,204.95l-96.59,114.94s146.64-34.67,209.85,97.54"/>
    <path class="cls-5" d="M263.08,1010.55s41.33-66.97,153.81-15.61c112.48,51.36,78.71,109.82,78.71,109.82"/>
    <path class="cls-5" d="M391.23,857.98s-76.7-25.78-75.33-52.27"/>
  </g>
</svg>