<?xml version="1.0" encoding="UTF-8"?>
<svg id="Layer_1" data-name="Layer 1" xmlns="http://www.w3.org/2000/svg" viewBox="0 0 868.18 277.93">
  <defs>
    <style>
      .cls-1 {
        fill: #dc4952;
      }
    </style>
  </defs>
  <path class="cls-1" d="M560.16,223.28c-17.5,26.4-44.14,44.03-74.83,50.16-16.48,3.29-32.77,3.46-49.13-.11-22.56-4.93-40.3-17.61-44.06-41.24-1.52-9.57-1.48-19.01.46-28.58l5.91-29.24c6.9-34.12-.1-55.26-11.43-87.49-5.76-16.38-11.18-32.82-6.67-49.89,4.87-18.44,20.38-31.1,39.3-32.35,9.78-.65,19.11.88,27.6,5.75,18.48,10.6,20.31,30.45,13.81,50.03l-5.33,16.04c-1.1,3.31-1.66,7.16-1.5,10.53.28,5.81,4.72,9.52,10.52,8.72,14.62-2.02,30.32-14.49,59.08-11.5,38.72,4.03,58.9,39.25,57.12,76.13-1.09,22.48-8.29,44.06-20.87,63.03ZM478.77,212.22c17.36-8.71,30.26-24.5,34.79-43.44,1.86-7.79,1.07-16.11-3.62-22.54-5.07-6.94-13.82-9.71-22.42-8.78-24.37,2.64-38.7,30.44-41.73,53.43-.66,4.99-.38,9.91,1.1,14.56,4.06,12.74,19.88,12.79,31.88,6.77Z"/>
  <path class="cls-1" d="M57.92,271.1c-16.15-4.79-29.32-13.8-39.34-26.68C-.02,220.48-3.21,188.11,2.68,158.75c7.62-37.94,29.35-73.9,66-89.27,24.11-10.12,51.19-11.36,75.99-3.17,21.56,7.13,38.24,22.23,47.56,42.81,15.59,34.42,12.14,74.99-4.47,108.67-8.66,17.56-21.62,32.6-38.59,42.58-27.41,16.12-60.55,19.83-91.26,10.73ZM108.75,200.26c16.17-9.33,27.87-25.14,33.03-43.17,5.2-18.19-.56-39.06-20.45-42.07-18.69-2.83-34.11,9.81-42.73,26.12-8.27,15.65-15.91,43.31-5.46,57.04,7.98,10.49,23.92,8.82,35.6,2.08Z"/>
  <path class="cls-1" d="M747.55,236.79c-7.14,19.86-21.4,37.01-43.01,36.11-14.74-.61-26.5-10.23-30.28-24.42-5.65-21.22,4.75-40.59,20.8-54.75l16.55-14.6c4.06-3.58,7.63-7.68,10.38-12.25,4.49-7.46,3.49-16.35-2.34-22.75-9.03-9.9-21.04-14-28.94-24.16-4.84-6.23-6.72-13.74-5.51-21.58,2.02-13.12,11.05-24.31,23.59-28.43,15.18-4.99,30.64,1.84,37.16,16.25,5.19,11.46,4.25,23.51,10.5,32.81,1.66,2.47,4.52,4.32,6.75,4.65,7.45,1.1,11.49-5.64,15.09-12.8l8.04-15.99c11.11-22.11,35.03-34.75,58.5-25.43,16.97,6.74,26.45,23.49,22.42,41.44-4.37,19.49-20.18,33.6-38.01,41.86l-20.83,9.66c-4.41,2.05-8.42,4.9-11.31,8.72-3.46,4.59-3.02,10.62.78,15.04,3.58,4.16,8.46,7.01,13.3,9.9l23.97,14.3c6.59,3.93,11.72,9.54,15.95,15.86,11.49,17.17,6.32,40.18-10.19,47.94-22.24,10.45-49.36-1.51-56.16-25.69l-5.86-20.84c-1.51-5.36-3.41-10.76-6.91-14.89-3.68-4.35-9.82-4.47-13.47-.29-2.07,2.37-4.11,5.33-5.19,8.33l-5.77,16.04Z"/>
  <path class="cls-1" d="M267.49,271.09c-17.45,3.62-41.42,3.72-56.36-5.68-7.24-4.55-11.33-12.25-10.34-20.96.45-3.92,1.33-8.21,3.04-11.74l9.31-19.26c8.86-18.33,12.41-38.1,10.09-58.38-1.15-10.09-3.45-19.43-5.58-29.33l-4.74-21.97c-1.47-6.83-.72-13.72,1.33-20.27,3-9.58,10.61-16.38,20.56-17.91,12.77-1.97,21.59,2.74,31.75,9.98,6,4.28,13.1,5.88,20.32,3.78l12.76-5.34c8.69-3.64,16.88-7.78,26.21-9.48,13.43-2.44,27,.4,37.62,8.9,8.84,7.08,13.7,16.92,16.35,27.81,2.97,12.24,2.27,24.63-3.5,35.77-6.29,12.14-18.48,18.58-32.17,17.49-16.7-1.34-26.45-11.79-41.02-16.65-11.91-3.97-23.33,2.24-26.62,14.46-4.57,17,6.28,33.89,15.22,48.69,4.2,6.96,7.84,13.78,10.21,21.52,4.92,16.06-1.35,32.63-15.68,41.3-5.82,3.52-11.96,5.86-18.75,7.27Z"/>
  <path class="cls-1" d="M642.49,268.77c-12.86,5.69-27.26,5.67-40.04.52-15.57-6.28-22.79-22.04-20.28-38.39,1.01-6.56,2.98-12.67,5.39-18.75l7.17-18.06c5.88-14.81,7.1-30.37,4.9-46.21l-6.7-31.4c-2.01-9.43-3.75-18.78-2.3-28.19,1.59-10.3,8.25-17.93,18.34-20.37,11.73-2.83,24.01-1.29,34.74,4.27,15.51,8.04,19.42,24.34,17.43,41.28l-5.24,26.76c-2.42,12.34-5.27,24.13-5.74,36.77-.44,11.87,1.36,22.96,5.29,34.02l5.02,17.87c2.93,16-2.48,33.03-17.98,39.89Z"/>
  <path class="cls-1" d="M650.24,47.73c-13.49,9.64-33.14,12.77-48.53,5.52-9.7-4.57-15-15-12.44-25.55,1.59-6.54,5.12-12.1,10.45-16.35,16.38-13.05,43.77-16.39,57.36-1.79,10.17,10.92,6.44,28.69-6.84,38.18Z"/>
</svg>